<?xml version="1.0" encoding="utf-8"?>
<!-- Generator: Adobe Illustrator 15.0.0, SVG Export Plug-In  -->
<!DOCTYPE svg PUBLIC "-//W3C//DTD SVG 1.1//EN" "http://www.w3.org/Graphics/SVG/1.1/DTD/svg11.dtd" [
	<!ENTITY ns_flows "http://ns.adobe.com/Flows/1.0/">
]>
<svg version="1.1"
	 xmlns="http://www.w3.org/2000/svg" xmlns:xlink="http://www.w3.org/1999/xlink" xmlns:a="http://ns.adobe.com/AdobeSVGViewerExtensions/3.0/"
	 x="0px" y="0px" width="143px" height="157px" viewBox="0 0 143 157" enable-background="new 0 0 143 157" xml:space="preserve">
<defs>
</defs>
<path fill="#FFFFFF" d="M46.75,103.15c0,0-13.25-4.5-19.5-6.75c0,0-5.25,7-27.25,33.5c37.75,36.75,122.5,37.75,139.75-9
	s-36.5-59.5-36.5-59.5l-7.25,6C46.5,52.15,37.75,39.15,35.25,33.15s7-4.75,7-4.75l73,26c0,0,13.25-19.25,23.5-33.5
	c-11.166-7.75-34.5-17.75-60-20.5c-25.5-2.75-60.5,8.75-67.75,32C-6.5,84.9,49.75,93.9,49.75,93.9s4.167-7.25,11.417-6.667
	s40.333,14.25,40.333,14.25s1.083,1.918-0.917,1.834C98.833,102.9,73,95.567,73,95.567s-1.333,0.083-2,1.333
	s0.249,1.583,1.417,2.083c1.166,0.5,25.833,10.333,25.833,10.333s1.249,2.75-0.833,2.25c-2.084-0.5-26.417-7.75-26.417-7.75
	s-3.083-1.083-3.75,0.75s0.333,2.166,1.333,2.666s26.5,11.084,26.5,11.084s0.668,1.583-0.5,1.666
	c-1.166,0.084-25.666-7.833-25.666-7.833s-2.668-0.75-3.25,0.75c-0.584,1.5-0.334,1.751,1.25,2.417
	c1.583,0.666,24.833,10.916,24.833,10.916s1.417,2.751-0.667,2.334c-2.083-0.417-32.75-9.917-32.75-9.917S44,114.483,46.75,103.15z"
	/>
</svg>
